<svg xmlns="http://www.w3.org/2000/svg" viewBox="0 0 855.26 432.9">
  <defs>
    <style>
      .cls-1 {
        font-size: 46.18px;
        fill: #ffb600;
        font-family: Rajdhani-SemiBold, Rajdhani;
        font-weight: 700;
      }

      .cls-2 {
        fill: #045;
      }
    </style>
  </defs>
  <title>Asset 3</title>
  <g id="Layer_2" data-name="Layer 2">
    <g id="Layer_1-2" data-name="Layer 1">
      <text class="cls-1" transform="translate(349.89 417.48)">20th Anniversary Edition</text>
    </g>
    <g id="Layer_1_copy" data-name="Layer 1 copy">
      <g>
        <path class="cls-2" d="M453.48.58,442.79,25.81l-255.62,0A23.13,23.13,0,0,0,175.64,29l-.94,1L174,31c-1.36,2-14.26,36.22-14,39.4.92,1.49,2.74,1.44,4.29,1.6,12.32.43,62.54-1,74.69,3.26,6.62,1.74,12.87,7.06,13.19,14.31a22.31,22.31,0,0,1-.2,4.28c0,2.47-38.47,95.45-39.67,97l-.14.14c-1.82,2.91-4.5,5.08-7.06,7.31-11.35,9.34-26.71,11.49-41,11.83C133.82,209.87,0,209.32,0,209.32s8.12-25.18,8.68-26.53c3.85-.23,141.8.13,150.51.27,5.48-.35,10.72-1.06,13.9-7.05,0,0,12.45-26.47,15.65-35,.66-2.42,1.46-5,.81-7.54a8.56,8.56,0,0,0-7.3-4.36c-15-.5-49.39-1-71.63-1.72-5.85-.78-10.87-5.91-12-11.88A58.69,58.69,0,0,1,99.49,101a33.72,33.72,0,0,1,2.38-6.71c2.2-4.91,38.51-81.34,39.5-82.83a19.21,19.21,0,0,1,3.9-4.78,24.61,24.61,0,0,1,5.12-2.77c3.76-1.3,19.09-4,28.86-3.91C182.46,0,453.48.58,453.48.58Z"/>
        <polygon class="cls-2" points="268.17 54.99 275.11 40.17 332.66 40.22 326.99 54.2 311.81 54.14 262.39 173.42 242.49 173.17 288.92 55.23 268.17 54.99"/>
        <path class="cls-2" d="M275.77,172.8,345.7,40.1l23.15.39-38.7,132.84-18.53-.13,5.16-15-15.89-.4-8.37,15.28Zm64.16-88.93-29.25,56.35,12.47.35Z"/>
        <path class="cls-2" d="M344.1,173.28,399,40.66s18.75,0,28.12.22c5.39.21,11.41,1.18,15.18,5.42,2,2.91,1.42,6.71,1,10-1.21,6.35-13,36.67-15.5,41.7-2.18,3.61-11,8.08-11.4,8.31,1.49,2.59,3.5,5.19,3.62,8.23.24,6-22.74,59.18-22.74,59.18l-20.36-.42,23.07-59-12,.1-24,59.42ZM411.17,57,395.25,96l12.8.23,17-39.21Z"/>
        <path class="cls-2" d="M350.1,361.49l55.95-135.06s19.09,0,28.63.23c5.49.21,11.62,1.2,15.46,5.52,2.05,3,1.45,6.83,1,10.18-1.23,6.47-13.26,37.34-15.78,42.46-2.22,3.68-11.2,8.23-11.61,8.47,1.51,2.63,3.56,5.27,3.68,8.38.25,6.12-23.15,60.26-23.15,60.26l-20.74-.42L407,301.38l-12.27.1L370.3,362ZM418.4,243.1l-16.21,39.73,13,.23,17.35-39.93Z"/>
        <path class="cls-2" d="M682.48,365.49l55.95-135.06s19.09,0,28.63.23c5.49.21,11.62,1.2,15.46,5.52,2.05,3,1.45,6.83,1,10.18-1.23,6.47-13.26,37.34-15.78,42.46-2.22,3.68-11.2,8.23-11.61,8.47,1.51,2.63,3.56,5.27,3.68,8.38.25,6.12-23.15,60.26-23.15,60.26l-20.74-.42,23.49-60.13-12.26.1L702.68,366Zm68.3-118.39-16.21,39.73,13,.23,17.34-39.93Z"/>
        <path class="cls-2" d="M478.18,41.47A101.79,101.79,0,0,1,500.11,41c4.1.38,9.21,1.92,10.13,6.46C510.92,50.84,497.36,86,497.36,86l-18.19-.18s7.28-19.9,10.79-29.89c-4.39-.18-8.95-.24-13,1.63-4.93,13.83-14.63,40-14.63,40s16.23-.79,24,1.67a4,4,0,0,1,1.49.81c2.65,2.89,2.26,8.9.85,13.3-4.39,14.79-17.76,45.94-19.4,49.57-1.95,4.33-6.24,9.62-11.06,10.88-5.91,1.55-30.07,1.36-35.86-.17-2.38-.62-4.75-2.11-5.48-4.67-1.52-5.3,1.05-10.51,2.83-15.39,3.38-9.24,10.9-27.47,10.9-27.47l19.68.3-12.69,32.54,12,.85,18.53-46s-14.11.32-21-1.25c-3.59-.82-4.89-4.8-4.84-8.05.1-6.62,13.06-37.4,18-49.65C463.2,47.42,470.43,42.47,478.18,41.47Z"/>
        <path class="cls-2" d="M822.59,231.53a102.94,102.94,0,0,1,22.33-.45c4.18.38,9.38,1.95,10.32,6.58.69,3.41-13.12,39.17-13.12,39.17l-18.52-.19s7.41-20.26,11-30.44c-4.47-.18-9.12-.24-13.27,1.66-5,14.08-14.9,40.78-14.9,40.78s16.52-.81,24.4,1.7a4.17,4.17,0,0,1,1.52.83c2.7,2.94,2.3,9.06.86,13.54-4.47,15.06-18.08,46.78-19.76,50.48-2,4.41-6.35,9.8-11.26,11.08-6,1.58-30.62,1.38-36.52-.17-2.42-.64-4.83-2.15-5.58-4.75-1.55-5.41,1.07-10.71,2.88-15.68,3.44-9.42,11.1-28,11.1-28l20,.3-12.92,33.14,12.17.87,18.87-46.86s-14.36.32-21.34-1.27c-3.66-.84-5-4.89-4.93-8.2.1-6.75,13.3-38.1,18.34-50.57C807.33,237.59,814.69,232.54,822.59,231.53Z"/>
        <path class="cls-2" d="M647.32,41.45s23.27.54,31,.65c5.65.35,12.19,2.7,14.11,8.6a26.28,26.28,0,0,1-1.56,15.15c-9.22,21.32-26.35,62.9-26.35,62.9s-3.89,9.11-8.42,11.17c-9.32,4.46-29.91,3-29.91,3l-12.19,32-20.81-.3Zm12.82,16L633,125.7s8.1,0,12.17,0c1.87,0,3-3.15,3-3.15l25.66-65.6Z"/>
        <path class="cls-2" d="M614.94,228.81s23.58.55,31.39.66c5.73.36,12.36,2.74,14.31,8.72a26.63,26.63,0,0,1-1.59,15.35c-9.34,21.61-26.7,63.76-26.7,63.76s-3.94,9.23-8.54,11.32c-9.44,4.52-30.31,3-30.31,3L581.14,364l-21.09-.3Zm13,16.18L600.42,314.2l12.34,0c1.9,0,3-3.19,3-3.19l26-66.49Z"/>
        <polygon class="cls-2" points="536.78 41.31 555.44 41.66 533.64 96.85 547.07 97.57 569.04 41.14 589.25 41.35 537.29 174.8 517.16 174.17 539.83 114.42 527.15 114.47 503.1 174.35 482.39 173.99 536.78 41.31"/>
        <polygon class="cls-2" points="606.96 41.73 627.2 41.86 576.01 174.89 556.75 174.51 606.96 41.73"/>
        <polygon class="cls-2" points="238.49 182.8 608.85 184.9 597.38 214.37 392.28 213.08 317.28 404.06 266.73 403.27 342.61 212.87 225.67 211.78 238.49 182.8"/>
        <path class="cls-2" d="M544,235.07c6.92-5.9,16.45-6.79,25.23-6.93,6.1-.09,12.84.49,17.56,4.64,3.54,3.12,3.88,8.35,2.55,12.52-1.19,3.72-40.28,106.89-46,112.3-6.79,6.42-15.86,6.91-25.32,7-7.51.12-14.68-.11-19.95-5-4.24-3.94-2.35-10.52-.58-15.3,10.82-29.1,22.77-57.77,33.77-86.81C534.32,249.46,537.24,240.85,544,235.07Zm11.88,10.05c-9.5,25.05-35.13,91.82-38.39,100.65,3.35,2.29,9.34,3.21,12.08-.19,10.11-25.09,35.1-90.81,38.54-100.15C564.3,243.5,559.91,244.53,555.89,245.12Z"/>
        <path class="cls-2" d="M515.37,232.78c-4.72-4.15-11.46-4.73-17.56-4.64-8.78.14-18.31,1-25.23,6.93-6.76,5.78-9.69,14.39-12.75,22.45-11,29-22.95,57.71-33.77,86.81-1.77,4.78-3.66,11.36.58,15.3,5.27,4.91,12.44,5.14,19.95,5,9.46-.14,18.53-.63,25.32-7,5.73-5.41,44.82-108.58,46-112.3C519.25,241.13,518.91,235.9,515.37,232.78Zm-57.22,112.8c-2.74,3.4-8.73,2.48-12.08.19,3.26-8.83,28.89-75.6,38.39-100.65,4-.59,8.41-1.62,12.23.31C493.25,254.77,468.26,320.49,458.15,345.58Z"/>
        <polygon class="cls-2" points="632.02 365.03 684.28 228.81 719.15 229.29 713.52 245.79 697.15 246.05 682.24 287.94 697.68 288.59 691.92 305.11 675.13 305.11 658.65 349.12 673.64 349.65 668.29 365.72 632.02 365.03"/>
      </g>
    </g>
  </g>
</svg>
